<svg id="svg" version="1.1" xmlns="http://www.w3.org/2000/svg" xmlns:xlink="http://www.w3.org/1999/xlink" width="400" height="283.49514563106794" viewBox="0, 0, 400,283.49514563106794"><g id="svgg"><path id="path0" d="M-0.000 76.525 L -0.000 153.050 79.645 152.979 C 123.450 152.940,159.450 152.849,159.645 152.775 C 159.928 152.669,160.000 137.117,160.000 76.321 L 160.000 0.000 80.000 0.000 L 0.000 0.000 -0.000 76.525 M136.733 14.771 C 136.736 15.172,136.934 16.161,137.174 16.970 C 137.642 18.545,137.604 18.523,139.993 18.560 C 141.899 18.589,141.972 19.158,140.271 20.750 C 138.387 22.515,138.331 22.690,138.999 24.724 C 140.091 28.050,139.750 28.516,137.785 26.383 C 136.166 24.625,135.947 24.625,134.421 26.380 C 132.456 28.641,132.078 28.151,133.220 24.823 C 133.905 22.825,133.765 22.348,132.031 20.759 C 130.065 18.959,130.133 18.582,132.425 18.582 C 134.571 18.582,134.876 18.299,135.279 15.926 C 135.725 13.300,136.720 12.511,136.733 14.771 M24.716 14.613 C 24.816 15.080,24.913 15.917,24.931 16.475 C 24.985 18.101,25.974 18.833,27.779 18.585 C 29.933 18.288,29.974 18.888,27.947 21.013 C 26.852 22.161,26.372 22.875,26.475 23.202 C 26.560 23.469,26.837 24.390,27.092 25.248 C 27.347 26.106,27.626 27.032,27.712 27.305 C 28.028 28.311,26.807 27.759,25.674 26.383 C 24.241 24.644,23.926 24.644,22.324 26.383 C 21.032 27.786,20.414 28.135,20.438 27.447 C 20.460 26.837,21.144 24.435,21.357 24.222 C 22.024 23.555,21.510 22.278,19.981 20.796 C 18.120 18.994,18.128 18.589,20.027 18.560 C 20.792 18.548,21.648 18.516,21.929 18.489 C 22.553 18.429,23.262 16.835,23.262 15.493 C 23.262 13.524,24.343 12.870,24.716 14.613 M80.672 14.255 C 80.766 14.606,80.851 15.277,80.861 15.745 C 80.903 17.808,81.668 18.582,83.667 18.582 C 86.046 18.582,86.120 18.945,84.116 20.781 C 82.325 22.422,82.328 22.403,83.228 25.617 C 83.993 28.351,83.731 28.491,81.789 26.383 C 80.187 24.644,79.872 24.644,78.440 26.383 C 76.775 28.404,76.272 28.302,76.793 26.048 C 77.016 25.083,77.325 24.057,77.480 23.768 C 77.906 22.971,77.554 22.270,75.964 20.753 C 74.070 18.946,74.194 18.311,76.387 18.585 C 78.320 18.827,78.863 18.295,79.200 15.826 C 79.487 13.731,80.299 12.864,80.672 14.255 M99.535 15.725 C 100.041 18.345,100.473 18.828,102.120 18.609 C 104.825 18.250,105.000 18.802,102.814 20.804 C 101.078 22.394,100.945 23.217,102.013 25.779 C 102.981 28.104,102.429 28.318,100.453 26.383 C 99.656 25.603,98.875 24.965,98.718 24.965 C 98.560 24.965,97.836 25.603,97.108 26.383 C 95.065 28.574,94.725 28.391,95.606 25.578 C 96.467 22.831,96.390 22.414,94.732 20.887 C 92.827 19.133,92.915 18.582,95.100 18.582 C 97.072 18.582,97.481 18.233,97.861 16.229 C 98.444 13.158,99.007 12.988,99.535 15.725 M118.304 15.974 C 118.872 18.643,118.825 18.596,120.848 18.519 C 123.369 18.425,123.524 18.898,121.577 20.743 C 119.778 22.449,119.692 22.845,120.567 25.390 C 121.564 28.288,121.072 28.626,119.111 26.389 C 117.566 24.628,117.295 24.628,115.773 26.383 C 114.591 27.745,113.745 28.195,113.771 27.447 C 113.793 26.837,114.478 24.435,114.691 24.222 C 115.371 23.542,114.850 22.195,113.348 20.749 C 111.346 18.821,111.453 18.298,113.797 18.563 C 115.674 18.776,116.592 17.927,116.595 15.976 C 116.598 13.045,117.679 13.044,118.304 15.974 M43.438 15.485 C 43.770 18.200,44.360 18.800,46.450 18.552 C 48.700 18.285,48.762 18.935,46.667 20.839 C 45.313 22.070,45.053 22.450,45.188 23.010 C 45.790 25.515,46.021 26.273,46.257 26.511 C 46.651 26.907,46.583 27.801,46.160 27.801 C 45.959 27.801,45.166 27.163,44.397 26.383 C 43.629 25.603,42.857 24.965,42.682 24.965 C 42.507 24.965,41.759 25.603,41.021 26.383 C 38.988 28.530,38.717 28.236,39.716 24.965 C 40.473 22.485,40.498 22.585,38.704 20.820 C 36.756 18.903,36.816 18.582,39.125 18.582 C 41.196 18.582,41.579 18.248,41.856 16.203 C 42.243 13.344,43.127 12.943,43.438 15.485 M61.943 14.397 C 62.018 14.670,62.160 15.483,62.257 16.203 C 62.535 18.251,62.915 18.582,64.988 18.582 C 67.319 18.582,67.379 18.928,65.380 20.848 C 63.602 22.557,63.650 22.282,64.556 25.593 C 65.235 28.072,64.986 28.225,63.176 26.437 C 61.353 24.637,61.484 24.637,59.657 26.442 C 57.892 28.184,57.161 28.073,57.930 26.180 C 59.323 22.746,59.317 22.680,57.427 20.820 C 55.475 18.898,55.536 18.556,57.814 18.662 L 59.539 18.743 60.124 17.420 C 60.446 16.693,60.709 15.689,60.709 15.189 C 60.709 13.885,61.637 13.290,61.943 14.397 M146.361 44.142 C 146.431 46.059,146.878 46.495,148.866 46.583 C 151.256 46.690,151.370 47.044,149.565 48.741 C 147.799 50.399,147.771 50.501,148.411 52.833 C 149.377 56.349,149.144 56.597,147.061 54.274 L 145.612 52.658 144.055 54.130 C 141.745 56.315,141.415 56.122,142.404 53.165 C 143.162 50.900,143.124 50.444,142.098 49.480 C 139.308 46.859,139.304 46.720,142.008 46.525 C 144.180 46.368,144.625 45.849,144.665 43.427 C 144.693 41.747,145.593 41.092,146.007 42.451 C 146.190 43.053,146.349 43.814,146.361 44.142 M14.975 42.057 C 15.135 42.252,15.405 43.163,15.574 44.081 C 15.981 46.290,16.186 46.484,18.228 46.583 C 20.489 46.693,20.545 47.037,18.606 48.901 C 16.787 50.648,16.805 50.560,17.735 53.191 C 18.870 56.402,18.561 56.724,16.515 54.468 C 15.807 53.688,15.020 53.050,14.766 53.050 C 14.513 53.050,13.676 53.688,12.908 54.468 C 10.869 56.538,10.612 56.286,11.638 53.218 C 12.447 50.800,12.383 50.481,10.780 48.964 C 8.761 47.052,8.850 46.525,11.196 46.525 C 13.344 46.525,13.416 46.446,13.913 43.597 C 14.245 41.688,14.439 41.407,14.975 42.057 M34.035 43.078 C 34.194 43.647,34.324 44.445,34.325 44.850 C 34.327 45.975,35.111 46.481,37.003 46.580 C 39.215 46.695,39.258 47.047,37.295 48.933 C 35.513 50.646,35.563 50.323,36.560 53.688 C 37.272 56.091,36.811 56.279,34.992 54.326 C 33.504 52.728,33.442 52.732,31.524 54.539 C 29.505 56.441,29.238 55.640,30.668 51.972 C 31.116 50.823,30.952 50.440,29.342 48.881 C 27.387 46.987,27.454 46.690,29.862 46.583 L 31.736 46.500 32.166 45.165 C 32.403 44.431,32.679 43.360,32.780 42.786 C 33.011 41.472,33.629 41.616,34.035 43.078 M52.580 42.199 C 52.655 42.472,52.797 43.206,52.895 43.830 C 53.282 46.298,53.467 46.491,55.539 46.583 C 57.954 46.691,58.032 47.033,56.055 48.844 C 54.493 50.275,54.052 51.330,54.706 52.071 C 55.054 52.465,55.726 55.574,55.510 55.790 C 55.409 55.891,54.668 55.316,53.864 54.512 C 52.059 52.708,52.006 52.708,50.166 54.539 C 48.381 56.316,48.101 55.950,49.063 53.094 C 49.881 50.665,49.836 50.472,48.059 48.844 C 46.104 47.054,46.169 46.693,48.465 46.582 C 50.456 46.486,50.888 46.096,51.201 44.113 C 51.533 42.010,51.641 41.702,52.043 41.702 C 52.264 41.702,52.505 41.926,52.580 42.199 M108.821 43.610 C 109.390 46.400,109.511 46.525,111.641 46.525 C 114.005 46.525,114.054 46.977,111.922 49.126 C 110.202 50.859,110.248 50.471,111.368 53.840 C 112.099 56.041,111.614 56.256,109.916 54.483 C 108.241 52.736,107.865 52.713,106.478 54.274 C 105.258 55.647,104.264 56.209,104.505 55.388 C 104.585 55.116,104.738 54.383,104.845 53.759 C 104.951 53.135,105.158 52.473,105.304 52.289 C 106.048 51.349,105.647 50.152,104.158 48.869 C 102.081 47.079,102.169 46.525,104.532 46.525 C 106.571 46.525,107.234 45.906,107.234 44.004 C 107.234 41.378,108.311 41.110,108.821 43.610 M127.819 44.598 L 128.305 46.501 130.158 46.584 C 132.492 46.688,132.642 47.052,130.990 48.599 C 129.017 50.448,128.914 51.284,130.253 54.555 C 130.882 56.092,130.103 56.064,128.623 54.495 C 126.934 52.706,126.607 52.701,125.040 54.444 C 123.288 56.392,122.798 56.059,123.640 53.494 C 124.530 50.783,124.476 50.520,122.668 48.712 C 120.786 46.830,120.867 46.525,123.244 46.525 C 125.297 46.525,125.523 46.351,125.817 44.539 C 125.931 43.837,126.220 42.880,126.460 42.413 C 126.973 41.412,127.029 41.502,127.819 44.598 M71.317 42.435 C 71.412 42.681,71.489 43.189,71.489 43.564 C 71.489 43.938,71.695 44.757,71.946 45.384 L 72.402 46.525 74.168 46.525 C 76.757 46.525,76.805 46.954,74.455 49.121 C 73.010 50.452,72.982 50.616,73.775 53.031 C 74.743 55.981,74.486 56.311,72.597 54.539 C 70.670 52.732,70.609 52.728,69.121 54.326 C 67.567 55.996,66.381 56.061,67.255 54.429 C 68.665 51.794,68.484 50.353,66.523 48.595 C 64.823 47.072,64.950 46.690,67.188 46.582 C 69.234 46.483,69.604 46.112,69.926 43.830 C 70.195 41.924,70.864 41.253,71.317 42.435 M90.063 43.050 C 90.151 43.635,90.380 44.624,90.573 45.248 L 90.922 46.383 92.766 46.469 C 95.296 46.587,95.363 46.790,93.513 48.730 C 91.724 50.606,91.678 50.815,92.498 53.313 C 93.396 56.049,93.167 56.285,91.313 54.539 C 89.372 52.710,89.252 52.708,87.634 54.468 C 85.544 56.741,85.272 56.433,86.390 53.060 C 87.285 50.361,87.351 50.671,85.508 48.901 C 83.561 47.030,83.621 46.693,85.920 46.582 C 87.925 46.485,88.306 46.033,88.655 43.333 C 88.884 41.562,89.812 41.375,90.063 43.050 M127.647 71.915 C 128.209 74.561,128.258 74.610,130.348 74.610 C 132.744 74.610,132.813 74.875,130.895 76.703 L 129.281 78.242 129.475 79.703 C 129.582 80.507,129.873 81.593,130.123 82.117 C 131.068 84.100,130.345 84.226,128.500 82.401 L 126.809 80.728 125.311 82.208 C 123.064 84.426,122.774 84.277,123.684 81.373 C 124.537 78.652,124.476 78.370,122.663 76.696 C 120.796 74.973,120.869 74.610,123.083 74.610 C 125.077 74.610,125.552 74.265,125.794 72.642 C 126.035 71.020,126.826 69.308,127.092 69.832 C 127.198 70.041,127.448 70.979,127.647 71.915 M146.370 72.057 C 146.827 74.462,146.976 74.610,148.954 74.610 C 151.184 74.610,151.245 74.929,149.389 76.875 C 148.516 77.791,147.801 78.582,147.801 78.633 C 147.801 78.685,148.108 79.843,148.484 81.208 C 149.316 84.234,149.170 84.372,147.221 82.398 C 145.368 80.522,145.521 80.528,143.917 82.270 C 142.007 84.343,141.438 84.227,142.185 81.915 C 143.278 78.535,143.262 78.428,141.422 76.729 C 139.517 74.970,139.584 74.610,141.817 74.610 C 143.866 74.610,144.309 74.182,144.571 71.953 C 144.940 68.816,145.764 68.864,146.370 72.057 M14.925 70.004 C 15.099 70.119,15.382 71.025,15.555 72.017 C 15.977 74.440,16.159 74.610,18.333 74.610 C 20.561 74.610,20.638 74.914,18.846 76.631 C 16.911 78.485,16.887 78.576,17.716 80.978 C 18.861 84.294,18.520 84.721,16.506 82.491 C 14.823 80.628,14.701 80.628,12.870 82.478 C 10.963 84.404,10.718 84.168,11.614 81.265 C 12.451 78.556,12.408 78.359,10.606 76.696 C 8.708 74.943,8.805 74.610,11.212 74.610 C 13.329 74.610,13.366 74.571,13.895 71.702 C 14.250 69.777,14.345 69.621,14.925 70.004 M33.724 70.170 C 33.899 70.381,34.121 71.179,34.218 71.944 C 34.511 74.259,34.882 74.610,37.028 74.610 C 39.340 74.610,39.371 74.883,37.281 76.877 C 35.537 78.542,35.580 78.263,36.541 81.631 C 37.275 84.207,36.872 84.372,34.982 82.270 C 33.410 80.522,33.570 80.512,31.588 82.482 C 29.511 84.547,29.218 83.776,30.668 80.058 C 31.137 78.854,30.930 78.342,29.335 76.772 C 27.450 74.917,27.533 74.610,29.923 74.610 L 31.727 74.610 32.152 73.262 C 32.386 72.521,32.657 71.436,32.755 70.851 C 32.944 69.726,33.203 69.543,33.724 70.170 M52.584 70.284 C 52.661 70.557,52.810 71.355,52.914 72.057 C 53.236 74.217,53.648 74.610,55.593 74.610 C 57.892 74.610,57.965 74.971,56.045 76.831 C 54.236 78.583,54.264 78.407,55.251 81.779 C 55.974 84.249,55.649 84.401,53.848 82.435 C 52.082 80.507,52.056 80.505,50.436 82.270 C 49.089 83.737,48.511 84.024,48.511 83.224 C 48.511 82.578,49.125 80.481,49.410 80.156 C 50.059 79.414,49.617 78.331,48.044 76.807 C 46.154 74.976,46.229 74.610,48.495 74.610 C 50.380 74.610,50.879 74.160,51.201 72.169 C 51.539 70.081,51.643 69.787,52.043 69.787 C 52.264 69.787,52.507 70.011,52.584 70.284 M71.946 73.121 L 72.369 74.610 74.182 74.610 C 76.585 74.610,76.679 74.941,74.784 76.720 C 73.174 78.230,72.950 78.788,73.446 80.058 C 74.887 83.752,74.590 84.570,72.565 82.482 C 70.650 80.508,70.747 80.514,69.105 82.270 C 66.967 84.555,66.653 84.333,67.660 81.249 C 68.583 78.419,68.614 78.577,66.809 76.854 C 64.744 74.884,64.778 74.610,67.086 74.610 C 69.237 74.610,69.603 74.259,69.897 71.915 C 70.133 70.033,70.955 69.314,71.293 70.695 C 71.419 71.210,71.713 72.301,71.946 73.121 M90.204 71.702 C 90.646 74.239,91.012 74.610,93.077 74.610 C 95.301 74.610,95.374 74.968,93.507 76.720 C 91.698 78.417,91.619 78.767,92.482 81.277 C 93.481 84.181,92.987 84.506,90.976 82.270 C 89.415 80.534,89.452 80.534,87.867 82.229 C 86.289 83.916,85.674 84.217,85.674 83.301 C 85.674 82.942,85.768 82.554,85.882 82.439 C 86.595 81.727,87.161 77.730,86.549 77.730 C 86.164 77.730,83.972 75.429,83.972 75.025 C 83.972 74.703,84.386 74.610,85.808 74.610 C 87.927 74.610,88.275 74.242,88.615 71.647 C 88.778 70.399,89.122 69.805,89.687 69.792 C 89.788 69.789,90.021 70.649,90.204 71.702 M108.765 71.189 C 109.159 74.154,109.539 74.610,111.618 74.610 C 114.029 74.610,114.120 74.928,112.213 76.689 C 110.373 78.388,110.318 78.622,111.154 81.194 C 112.155 84.272,111.864 84.460,109.583 82.208 L 108.085 80.729 106.587 82.208 C 105.146 83.631,104.165 84.134,104.492 83.283 C 104.578 83.060,104.739 82.389,104.851 81.793 C 104.962 81.197,105.208 80.326,105.398 79.858 C 105.861 78.712,105.718 78.399,103.926 76.661 C 102.081 74.870,102.163 74.610,104.570 74.610 C 106.559 74.610,107.234 73.934,107.234 71.942 C 107.234 69.669,108.482 69.055,108.765 71.189 M34.229 100.073 C 34.485 102.234,35.139 102.811,37.072 102.584 C 39.321 102.319,39.393 102.910,37.349 104.889 C 35.504 106.677,35.568 106.421,36.336 108.949 C 37.243 111.936,37.028 112.201,35.143 110.426 C 33.217 108.611,33.328 108.613,31.659 110.355 C 29.642 112.459,29.230 112.012,30.355 108.936 C 31.163 106.726,31.103 106.484,29.331 104.781 C 27.382 102.908,27.520 102.365,29.883 102.609 C 31.769 102.803,32.235 102.183,32.774 98.762 C 33.043 97.051,33.970 97.886,34.229 100.073 M108.670 98.669 C 108.679 99.089,108.909 100.135,109.180 100.993 L 109.673 102.553 111.498 102.553 C 113.910 102.553,114.036 103.054,112.076 104.859 C 110.432 106.374,110.355 106.772,111.213 109.335 C 112.191 112.260,111.825 112.534,109.848 110.355 C 109.140 109.574,108.346 108.936,108.084 108.936 C 107.821 108.936,107.068 109.574,106.410 110.355 C 105.217 111.770,104.218 112.253,104.505 111.277 C 104.585 111.004,104.738 110.270,104.845 109.645 C 104.951 109.021,105.131 108.383,105.244 108.227 C 105.981 107.211,105.781 106.570,104.241 105.005 C 102.108 102.837,102.198 102.348,104.681 102.618 C 106.322 102.796,106.913 102.193,107.205 100.044 C 107.513 97.778,108.626 96.734,108.670 98.669 M127.647 99.950 C 128.334 102.764,128.325 102.753,130.032 102.684 C 132.764 102.573,132.864 102.878,130.752 104.874 C 129.131 106.407,129.047 107.114,130.128 110.142 C 130.886 112.266,130.303 112.404,128.573 110.511 C 126.811 108.583,126.581 108.573,125.079 110.355 C 123.177 112.610,122.661 112.216,123.688 109.294 C 124.563 106.805,124.476 106.419,122.654 104.692 C 120.759 102.896,120.961 102.317,123.382 102.603 C 125.046 102.800,125.528 102.385,125.809 100.514 C 126.014 99.148,126.732 97.418,126.988 97.674 C 127.064 97.749,127.360 98.773,127.647 99.950 M145.922 98.085 C 146.002 98.358,146.219 99.384,146.406 100.366 C 146.800 102.439,147.280 102.844,149.056 102.600 C 151.320 102.290,151.394 103.201,149.249 104.975 C 147.826 106.152,147.734 106.557,148.393 108.724 C 149.413 112.078,149.094 112.495,147.146 110.355 C 146.436 109.574,145.674 108.936,145.452 108.936 C 145.231 108.936,144.461 109.574,143.742 110.355 C 141.738 112.531,141.374 111.957,142.575 108.511 C 143.208 106.695,143.092 106.332,141.366 104.707 C 139.465 102.917,139.649 102.393,142.097 102.628 C 143.796 102.791,144.319 102.202,144.587 99.823 C 144.812 97.827,145.562 96.850,145.922 98.085 M15.494 99.720 C 16.018 102.501,16.339 102.835,18.336 102.675 C 20.593 102.493,20.684 102.961,18.745 104.775 C 16.949 106.455,16.890 106.705,17.728 109.079 C 18.865 112.303,18.561 112.596,16.401 110.355 C 15.649 109.574,14.862 108.936,14.651 108.936 C 14.441 108.936,13.681 109.574,12.962 110.355 C 10.960 112.529,10.691 112.300,11.631 109.220 C 12.433 106.593,12.386 106.357,10.760 104.859 C 8.949 103.191,8.958 102.516,10.790 102.637 C 13.267 102.802,13.280 102.786,14.055 98.779 C 14.358 97.214,15.116 97.710,15.494 99.720 M52.833 99.520 C 53.232 102.296,53.655 102.762,55.667 102.650 C 57.986 102.520,58.055 102.940,56.023 104.815 C 54.210 106.490,54.236 106.330,55.210 109.706 C 55.882 112.037,55.604 112.177,53.814 110.409 C 51.994 108.612,52.174 108.611,50.240 110.426 C 48.357 112.192,48.091 111.865,49.063 108.981 C 49.859 106.618,49.851 106.583,48.085 104.859 C 45.911 102.736,46.016 102.367,48.720 102.630 L 50.205 102.774 50.770 101.529 C 51.081 100.844,51.338 99.826,51.341 99.267 C 51.354 97.177,52.524 97.376,52.833 99.520 M71.347 98.652 C 72.115 102.604,72.267 102.811,74.230 102.609 C 76.632 102.361,76.763 102.930,74.737 104.801 L 73.083 106.328 73.589 108.270 C 74.655 112.361,74.586 112.490,72.482 110.355 C 70.760 108.606,70.766 108.606,68.969 110.403 C 67.171 112.201,66.770 111.984,67.564 109.645 C 68.513 106.853,68.426 106.376,66.672 104.764 C 64.664 102.918,64.794 102.343,67.161 102.590 C 69.181 102.801,69.401 102.597,69.835 100.102 C 70.228 97.845,71.038 97.068,71.347 98.652 M90.175 99.613 C 90.655 102.339,91.082 102.804,92.904 102.590 C 95.302 102.308,95.463 102.881,93.499 104.709 C 91.704 106.379,91.618 106.762,92.482 109.220 C 93.520 112.170,93.130 112.503,91.151 110.355 C 90.433 109.574,89.673 108.936,89.462 108.936 C 89.252 108.936,88.465 109.574,87.713 110.355 C 85.549 112.599,85.301 112.364,86.372 109.083 C 87.189 106.580,87.159 106.450,85.350 104.757 C 83.917 103.418,83.618 102.710,84.468 102.674 C 84.741 102.663,85.597 102.631,86.370 102.603 C 87.952 102.547,88.281 102.059,88.653 99.220 C 88.929 97.106,89.772 97.324,90.175 99.613 M118.285 127.943 C 118.742 130.353,118.889 130.496,120.895 130.496 C 123.230 130.496,123.376 131.024,121.517 132.738 C 119.783 134.337,119.654 134.662,120.162 136.137 C 121.434 139.830,121.172 140.491,119.244 138.449 C 117.573 136.678,117.299 136.677,115.630 138.440 C 114.338 139.805,113.759 140.160,113.759 139.588 C 113.759 139.219,114.494 136.475,114.826 135.603 C 115.199 134.623,115.005 134.231,113.428 132.783 C 111.469 130.984,111.567 130.496,113.891 130.496 C 116.023 130.496,116.277 130.238,116.626 127.716 C 117.039 124.732,117.692 124.822,118.285 127.943 M136.565 125.839 C 136.660 126.086,136.738 126.573,136.738 126.922 C 136.738 127.271,136.932 128.212,137.170 129.014 L 137.603 130.471 139.488 130.555 C 141.922 130.663,141.993 130.974,140.024 132.897 C 138.208 134.669,138.254 134.485,139.028 136.880 C 140.011 139.921,139.727 140.314,137.930 138.399 C 136.172 136.527,135.940 136.529,134.292 138.440 C 132.798 140.174,132.327 139.975,132.913 137.857 C 133.852 134.464,133.875 134.604,132.063 132.772 C 130.126 130.815,130.205 130.496,132.631 130.496 C 134.751 130.496,134.859 130.383,135.291 127.701 C 135.660 125.404,136.133 124.713,136.565 125.839 M24.852 127.725 C 25.267 130.254,25.504 130.496,27.561 130.496 C 29.947 130.496,30.026 130.997,27.946 132.917 C 26.586 134.172,26.339 134.542,26.494 135.088 C 26.975 136.779,27.509 138.640,27.680 139.220 C 27.988 140.268,27.315 139.972,25.903 138.440 C 24.270 136.667,23.978 136.673,22.127 138.511 C 20.421 140.204,20.217 140.073,20.875 137.705 C 21.769 134.483,21.794 134.622,20.016 132.758 C 18.108 130.758,18.172 130.496,20.574 130.496 C 22.635 130.496,22.841 130.310,23.129 128.192 C 23.441 125.901,23.542 125.631,24.053 125.729 C 24.414 125.797,24.619 126.309,24.852 127.725 M43.064 126.014 C 43.251 126.201,43.404 126.689,43.404 127.098 C 43.404 127.507,43.606 128.434,43.852 129.157 L 44.300 130.472 46.170 130.555 C 48.593 130.663,48.671 131.004,46.693 132.816 C 45.159 134.221,44.677 135.304,45.390 135.745 C 45.546 135.841,45.678 136.264,45.684 136.683 C 45.689 137.103,45.876 137.766,46.099 138.156 C 47.248 140.165,46.342 140.330,44.539 138.440 C 42.857 136.677,42.701 136.680,40.825 138.511 C 39.002 140.290,38.692 139.845,39.706 136.906 C 40.501 134.599,40.489 134.551,38.664 132.706 C 36.773 130.795,36.851 130.561,39.420 130.441 L 41.251 130.355 41.609 129.078 C 41.806 128.376,42.041 127.323,42.131 126.738 C 42.304 125.615,42.507 125.458,43.064 126.014 M61.950 126.480 C 62.021 126.739,62.161 127.440,62.262 128.039 C 62.637 130.255,62.856 130.463,64.911 130.555 C 67.281 130.661,67.329 130.921,65.336 132.850 L 63.702 134.434 64.231 136.366 C 64.522 137.428,64.821 138.585,64.895 138.936 C 65.119 139.991,64.272 139.700,63.038 138.298 C 61.609 136.674,61.221 136.695,59.528 138.489 C 57.904 140.210,57.094 140.107,57.960 138.291 C 58.224 137.738,58.440 137.076,58.440 136.819 C 58.440 136.562,58.595 135.922,58.785 135.396 C 59.128 134.448,59.117 134.428,57.488 132.886 C 55.481 130.989,55.531 130.664,57.844 130.553 L 59.615 130.468 60.156 129.277 C 60.453 128.621,60.700 127.744,60.703 127.328 C 60.716 125.807,61.603 125.204,61.950 126.480 M80.679 126.122 C 80.774 126.369,80.851 126.992,80.851 127.506 C 80.851 128.021,81.044 128.904,81.280 129.469 L 81.710 130.496 83.533 130.496 C 85.964 130.496,86.045 130.814,84.112 132.768 C 82.348 134.550,82.355 134.518,83.117 137.163 C 83.759 139.392,83.775 139.574,83.332 139.574 C 83.099 139.574,82.380 139.000,81.732 138.298 C 81.085 137.596,80.309 137.021,80.008 137.021 C 79.707 137.021,78.982 137.595,78.394 138.298 C 76.580 140.467,76.128 139.507,77.341 136.067 C 77.888 134.519,77.903 134.561,76.146 132.873 C 74.202 131.004,74.260 130.664,76.547 130.554 C 78.558 130.457,78.923 130.053,79.249 127.565 C 79.497 125.667,80.223 124.935,80.679 126.122 M99.517 127.551 C 100.060 130.413,100.138 130.496,102.263 130.496 C 104.664 130.496,104.729 130.758,102.827 132.752 C 101.086 134.577,100.931 135.518,102.019 137.645 C 103.164 139.882,102.400 140.300,100.567 138.440 C 99.799 137.660,98.963 137.021,98.709 137.021 C 98.455 137.021,97.668 137.660,96.961 138.440 C 94.961 140.644,94.699 140.439,95.637 137.406 C 96.511 134.584,96.461 134.331,94.741 132.782 C 92.789 131.025,92.913 130.496,95.276 130.496 C 97.281 130.496,97.515 130.279,97.872 128.085 C 98.117 126.583,98.533 125.674,98.977 125.674 C 99.078 125.674,99.322 126.518,99.517 127.551 " stroke="none" fill="#062a69" fill-rule="evenodd"></path><path id="path1" d="M135.924 13.714 C 135.738 13.938,135.446 14.934,135.276 15.926 C 134.848 18.419,134.492 18.756,132.391 18.659 C 130.130 18.555,130.061 18.955,132.031 20.759 C 133.765 22.348,133.905 22.825,133.220 24.823 C 132.078 28.151,132.456 28.641,134.421 26.380 C 135.947 24.625,136.166 24.625,137.785 26.383 C 139.750 28.516,140.091 28.050,138.999 24.724 C 138.331 22.690,138.387 22.515,140.271 20.750 C 141.972 19.158,141.899 18.589,139.993 18.560 C 137.604 18.523,137.642 18.545,137.174 16.970 C 136.934 16.161,136.736 15.172,136.733 14.771 C 136.727 13.691,136.351 13.200,135.924 13.714 M23.445 14.242 C 23.349 14.600,23.268 15.277,23.266 15.745 C 23.256 17.782,22.463 18.582,20.453 18.582 C 18.090 18.582,18.023 18.899,19.981 20.796 C 21.510 22.278,22.024 23.555,21.357 24.222 C 21.144 24.435,20.460 26.837,20.438 27.447 C 20.415 28.111,20.952 27.803,22.297 26.383 C 23.943 24.645,24.242 24.645,25.674 26.383 C 26.807 27.759,28.028 28.311,27.712 27.305 C 27.626 27.032,27.347 26.106,27.092 25.248 C 26.837 24.390,26.560 23.469,26.475 23.202 C 26.372 22.875,26.852 22.161,27.947 21.013 C 29.992 18.869,29.935 18.310,27.698 18.589 C 25.854 18.819,24.987 18.156,24.931 16.471 C 24.851 14.061,23.882 12.608,23.445 14.242 M79.791 13.849 C 79.598 13.971,79.332 14.861,79.200 15.826 C 78.863 18.295,78.320 18.827,76.387 18.585 C 74.194 18.311,74.070 18.946,75.964 20.753 C 77.554 22.270,77.906 22.971,77.480 23.768 C 77.325 24.057,77.016 25.083,76.793 26.048 C 76.272 28.302,76.775 28.404,78.440 26.383 C 79.872 24.645,80.171 24.645,81.816 26.383 C 83.781 28.458,83.991 28.344,83.228 25.617 C 82.328 22.403,82.325 22.422,84.116 20.781 C 86.120 18.945,86.046 18.582,83.667 18.582 C 81.668 18.582,80.903 17.808,80.861 15.745 C 80.824 13.965,80.503 13.396,79.791 13.849 M98.460 14.146 C 98.286 14.471,98.018 15.401,97.864 16.214 C 97.460 18.344,96.979 18.764,95.062 18.664 C 92.943 18.553,92.864 19.091,94.737 20.865 C 96.387 22.427,96.464 22.843,95.606 25.578 C 94.725 28.391,95.065 28.574,97.108 26.383 C 97.836 25.603,98.578 24.965,98.757 24.965 C 98.936 24.965,99.711 25.603,100.479 26.383 C 102.400 28.335,102.982 28.106,102.013 25.779 C 100.946 23.219,101.078 22.396,102.814 20.780 C 104.981 18.763,104.818 18.251,102.120 18.609 C 100.473 18.828,100.041 18.345,99.535 15.725 C 99.151 13.732,98.888 13.346,98.460 14.146 M116.872 14.345 C 116.720 14.745,116.595 15.479,116.595 15.976 C 116.592 17.927,115.674 18.776,113.797 18.563 C 111.453 18.298,111.346 18.821,113.348 20.749 C 114.850 22.195,115.371 23.542,114.691 24.222 C 114.478 24.435,113.793 26.837,113.771 27.447 C 113.745 28.185,114.549 27.751,115.745 26.383 C 117.278 24.627,117.566 24.628,119.111 26.389 C 121.147 28.710,121.563 28.309,120.465 25.081 C 119.666 22.730,119.743 22.445,121.680 20.604 C 123.508 18.868,123.303 18.281,120.973 18.572 C 119.115 18.804,118.783 18.498,118.315 16.123 C 117.754 13.277,117.430 12.878,116.872 14.345 M42.154 14.520 C 42.080 14.882,41.938 15.688,41.839 16.312 C 41.513 18.381,41.075 18.755,39.095 18.663 C 36.812 18.556,36.750 18.897,38.704 20.820 C 40.498 22.585,40.473 22.485,39.716 24.965 C 38.717 28.236,38.988 28.530,41.021 26.383 C 41.759 25.603,42.507 24.965,42.682 24.965 C 42.857 24.965,43.629 25.603,44.397 26.383 C 45.166 27.163,45.959 27.801,46.160 27.801 C 46.583 27.801,46.651 26.907,46.257 26.511 C 46.021 26.273,45.790 25.515,45.188 23.010 C 45.053 22.450,45.313 22.070,46.667 20.839 C 48.819 18.884,48.713 18.295,46.260 18.579 L 44.580 18.774 44.096 17.838 C 43.829 17.323,43.533 16.260,43.437 15.476 C 43.243 13.894,42.411 13.274,42.154 14.520 M60.898 14.090 C 60.794 14.194,60.709 14.688,60.709 15.189 C 60.709 15.689,60.446 16.693,60.124 17.420 L 59.539 18.743 57.814 18.662 C 55.536 18.556,55.475 18.898,57.427 20.820 C 59.326 22.688,59.306 22.484,57.959 26.212 C 57.288 28.070,57.921 28.156,59.657 26.442 C 61.484 24.637,61.353 24.637,63.176 26.437 C 64.986 28.225,65.235 28.072,64.556 25.593 C 63.650 22.282,63.602 22.557,65.380 20.848 C 67.377 18.929,67.317 18.582,64.989 18.582 C 62.917 18.582,62.534 18.248,62.257 16.203 C 61.955 13.972,61.588 13.401,60.898 14.090 M160.635 22.138 L 159.993 22.396 160.067 32.971 L 160.142 43.546 280.071 43.617 L 400.000 43.689 400.000 32.908 L 400.000 22.128 281.016 22.128 C 215.575 22.128,161.862 22.072,161.654 22.004 C 161.447 21.935,160.988 21.996,160.635 22.138 M145.170 41.915 C 144.901 42.213,144.674 42.893,144.665 43.427 C 144.625 45.849,144.180 46.368,142.008 46.525 C 139.734 46.689,139.491 46.992,140.727 48.121 C 143.262 50.437,143.289 50.519,142.404 53.165 C 141.415 56.122,141.745 56.315,144.055 54.130 L 145.612 52.658 147.061 54.274 C 149.144 56.597,149.377 56.349,148.411 52.833 C 147.769 50.496,147.797 50.398,149.557 48.728 C 151.347 47.030,151.244 46.674,148.957 46.642 C 146.923 46.615,146.821 46.520,146.373 44.255 C 145.811 41.423,145.740 41.285,145.170 41.915 M13.905 43.663 C 13.442 46.405,13.231 46.624,11.107 46.560 C 8.850 46.492,8.773 47.063,10.780 48.964 C 12.383 50.481,12.447 50.800,11.638 53.218 C 10.612 56.286,10.869 56.538,12.908 54.468 C 13.676 53.688,14.514 53.050,14.770 53.050 C 15.025 53.050,15.823 53.688,16.541 54.468 C 18.593 56.695,18.869 56.400,17.735 53.191 C 16.804 50.558,16.788 50.637,18.601 48.881 C 20.518 47.024,20.474 46.680,18.314 46.626 C 16.299 46.576,15.979 46.281,15.579 44.105 C 15.024 41.092,14.368 40.919,13.905 43.663 M32.780 42.786 C 32.679 43.360,32.403 44.431,32.166 45.165 L 31.736 46.500 29.862 46.583 C 27.483 46.689,27.380 47.012,29.191 48.680 C 30.807 50.169,31.094 50.775,30.697 51.865 C 29.260 55.810,29.466 56.477,31.524 54.539 C 33.442 52.732,33.504 52.728,34.992 54.326 C 36.811 56.279,37.272 56.091,36.560 53.688 C 35.561 50.315,35.511 50.637,37.290 48.915 C 39.242 47.024,39.202 46.694,37.003 46.580 C 35.111 46.481,34.327 45.975,34.325 44.850 C 34.320 42.528,33.110 40.911,32.780 42.786 M51.511 42.340 C 51.439 42.691,51.301 43.469,51.204 44.068 C 50.848 46.275,50.621 46.492,48.564 46.584 C 46.161 46.691,46.084 47.035,48.059 48.844 C 49.836 50.472,49.881 50.665,49.063 53.094 C 48.101 55.950,48.381 56.316,50.166 54.539 C 52.006 52.708,52.059 52.708,53.864 54.512 C 54.668 55.316,55.409 55.891,55.510 55.790 C 55.726 55.574,55.054 52.465,54.706 52.071 C 54.052 51.330,54.493 50.275,56.055 48.844 C 58.032 47.033,57.954 46.691,55.539 46.583 C 53.467 46.491,53.282 46.298,52.895 43.830 C 52.616 42.058,52.474 41.702,52.043 41.702 C 51.822 41.702,51.583 41.989,51.511 42.340 M107.519 42.407 C 107.362 42.820,107.234 43.539,107.234 44.004 C 107.234 45.906,106.571 46.525,104.532 46.525 C 102.169 46.525,102.081 47.079,104.158 48.869 C 105.647 50.152,106.048 51.349,105.304 52.289 C 105.158 52.473,104.951 53.135,104.845 53.759 C 104.738 54.383,104.585 55.116,104.505 55.388 C 104.264 56.209,105.258 55.647,106.478 54.274 C 107.865 52.713,108.241 52.736,109.916 54.483 C 111.614 56.256,112.099 56.041,111.368 53.840 C 110.248 50.471,110.202 50.859,111.922 49.126 C 114.054 46.977,114.005 46.525,111.641 46.525 C 109.511 46.525,109.390 46.400,108.821 43.610 C 108.431 41.697,107.956 41.258,107.519 42.407 M126.460 42.413 C 126.220 42.880,125.931 43.837,125.817 44.539 C 125.523 46.351,125.297 46.525,123.244 46.525 C 120.867 46.525,120.786 46.830,122.668 48.712 C 124.476 50.520,124.530 50.783,123.640 53.494 C 122.798 56.059,123.288 56.392,125.040 54.444 C 126.607 52.701,126.934 52.706,128.623 54.495 C 130.103 56.064,130.882 56.092,130.253 54.555 C 128.914 51.284,129.017 50.448,130.990 48.599 C 132.511 47.174,132.453 46.684,130.755 46.618 C 130.067 46.590,129.235 46.559,128.907 46.547 C 128.414 46.529,128.227 46.196,127.822 44.610 C 127.029 41.501,126.973 41.411,126.460 42.413 M70.247 42.215 C 70.169 42.341,70.016 43.114,69.907 43.933 C 69.620 46.103,69.127 46.576,67.103 46.626 C 64.952 46.679,64.833 47.081,66.523 48.595 C 68.484 50.353,68.665 51.794,67.255 54.429 C 66.372 56.079,67.688 56.004,69.063 54.326 C 70.388 52.709,70.663 52.725,72.597 54.539 C 74.486 56.311,74.743 55.981,73.775 53.031 C 72.982 50.616,73.010 50.452,74.455 49.121 C 76.701 47.051,76.719 46.444,74.532 46.530 C 73.873 46.556,73.124 46.566,72.868 46.551 C 72.353 46.522,71.489 44.649,71.489 43.564 C 71.489 42.270,70.725 41.441,70.247 42.215 M88.655 43.333 C 88.306 46.033,87.925 46.485,85.920 46.582 C 83.621 46.693,83.561 47.030,85.508 48.901 C 87.351 50.671,87.285 50.361,86.390 53.060 C 85.273 56.430,85.526 56.726,87.599 54.468 C 89.218 52.705,89.370 52.708,91.313 54.539 C 93.167 56.285,93.396 56.049,92.498 53.313 C 91.679 50.818,91.725 50.605,93.493 48.751 C 95.343 46.812,95.280 46.492,93.068 46.558 C 90.785 46.627,90.593 46.402,90.070 43.050 C 89.808 41.377,88.884 41.562,88.655 43.333 M160.139 66.170 C 160.054 66.521,160.019 71.404,160.063 77.021 L 160.142 87.234 280.071 87.305 L 400.000 87.377 400.000 76.454 L 400.000 65.532 280.147 65.532 L 160.294 65.532 160.139 66.170 M126.452 70.399 C 126.207 70.921,125.917 71.957,125.807 72.703 C 125.567 74.328,125.154 74.610,123.014 74.610 C 120.872 74.610,120.809 74.984,122.663 76.696 C 124.476 78.370,124.537 78.652,123.684 81.373 C 122.774 84.277,123.064 84.426,125.311 82.208 L 126.809 80.728 128.500 82.401 C 130.348 84.229,130.928 84.136,130.096 82.144 C 129.857 81.571,129.575 80.458,129.471 79.672 L 129.281 78.242 130.895 76.703 C 132.813 74.875,132.744 74.610,130.348 74.610 C 128.258 74.610,128.209 74.561,127.647 71.915 C 127.128 69.474,126.977 69.282,126.452 70.399 M145.191 69.885 C 144.953 70.123,144.671 71.089,144.564 72.031 C 144.313 74.252,143.935 74.610,141.840 74.610 C 139.583 74.610,139.513 74.966,141.422 76.729 C 143.262 78.428,143.278 78.535,142.185 81.915 C 141.438 84.227,142.007 84.343,143.917 82.270 C 145.521 80.528,145.368 80.522,147.221 82.398 C 149.170 84.372,149.316 84.234,148.484 81.208 C 148.108 79.843,147.801 78.685,147.801 78.633 C 147.801 78.582,148.516 77.791,149.389 76.875 C 151.245 74.929,151.184 74.610,148.954 74.610 C 146.976 74.610,146.827 74.462,146.370 72.057 C 145.907 69.618,145.749 69.327,145.191 69.885 M13.895 71.702 C 13.366 74.571,13.329 74.610,11.212 74.610 C 8.805 74.610,8.708 74.943,10.606 76.696 C 12.408 78.359,12.451 78.556,11.614 81.265 C 10.718 84.168,10.963 84.404,12.870 82.478 C 14.701 80.628,14.823 80.628,16.506 82.491 C 18.520 84.721,18.861 84.294,17.716 80.978 C 16.888 78.577,16.910 78.491,18.843 76.608 C 20.618 74.879,20.549 74.610,18.333 74.610 C 16.159 74.610,15.977 74.440,15.555 72.017 C 15.273 70.397,14.973 69.805,14.429 69.792 C 14.330 69.789,14.090 70.649,13.895 71.702 M32.755 70.851 C 32.657 71.436,32.386 72.521,32.152 73.262 L 31.727 74.610 29.923 74.610 C 27.533 74.610,27.450 74.917,29.335 76.772 C 30.930 78.342,31.137 78.854,30.668 80.058 C 29.228 83.750,29.508 84.505,31.562 82.468 C 33.534 80.511,33.408 80.519,34.982 82.270 C 36.872 84.372,37.275 84.207,36.541 81.631 C 35.580 78.263,35.537 78.542,37.281 76.877 C 39.371 74.883,39.340 74.610,37.028 74.610 C 34.882 74.610,34.511 74.259,34.218 71.944 C 33.933 69.698,33.058 69.045,32.755 70.851 M51.511 70.426 C 51.439 70.777,51.300 71.561,51.201 72.169 C 50.879 74.160,50.380 74.610,48.495 74.610 C 46.229 74.610,46.154 74.976,48.044 76.807 C 49.617 78.331,50.059 79.414,49.410 80.156 C 49.125 80.481,48.511 82.578,48.511 83.224 C 48.511 84.024,49.089 83.737,50.436 82.270 C 52.056 80.505,52.082 80.507,53.848 82.435 C 55.649 84.401,55.974 84.249,55.251 81.779 C 54.264 78.407,54.236 78.583,56.045 76.831 C 57.965 74.971,57.892 74.610,55.593 74.610 C 53.648 74.610,53.236 74.217,52.914 72.057 C 52.567 69.721,51.831 68.865,51.511 70.426 M70.594 70.085 C 70.300 70.253,70.051 70.911,69.929 71.843 C 69.612 74.259,69.251 74.610,67.086 74.610 C 64.778 74.610,64.744 74.884,66.809 76.854 C 68.614 78.577,68.583 78.419,67.660 81.249 C 66.653 84.333,66.967 84.555,69.105 82.270 C 70.747 80.514,70.650 80.508,72.565 82.482 C 74.590 84.570,74.887 83.752,73.446 80.058 C 72.950 78.788,73.174 78.230,74.784 76.720 C 76.679 74.941,76.585 74.610,74.182 74.610 L 72.369 74.610 71.946 73.121 C 71.713 72.301,71.419 71.223,71.293 70.724 C 71.106 69.986,70.977 69.867,70.594 70.085 M89.151 70.020 C 88.957 70.143,88.716 70.875,88.615 71.647 C 88.275 74.242,87.927 74.610,85.808 74.610 C 84.459 74.610,83.972 74.711,83.972 74.991 C 83.972 75.376,86.186 77.730,86.548 77.730 C 87.160 77.730,86.596 81.726,85.882 82.439 C 85.768 82.554,85.674 82.942,85.674 83.301 C 85.674 84.217,86.289 83.916,87.867 82.229 C 89.452 80.534,89.415 80.534,90.976 82.270 C 92.987 84.506,93.481 84.181,92.482 81.277 C 91.619 78.767,91.698 78.417,93.507 76.720 C 95.394 74.949,95.306 74.610,92.959 74.610 C 90.863 74.610,90.676 74.410,90.196 71.655 C 89.866 69.759,89.778 69.622,89.151 70.020 M107.511 70.515 C 107.359 70.915,107.234 71.558,107.234 71.942 C 107.234 73.934,106.559 74.610,104.570 74.610 C 102.163 74.610,102.081 74.870,103.926 76.661 C 105.718 78.399,105.861 78.712,105.398 79.858 C 105.208 80.326,104.962 81.197,104.851 81.793 C 104.739 82.389,104.578 83.060,104.492 83.283 C 104.165 84.134,105.146 83.631,106.587 82.208 L 108.085 80.729 109.583 82.208 C 111.864 84.460,112.155 84.272,111.154 81.194 C 110.318 78.622,110.373 78.388,112.213 76.689 C 114.120 74.928,114.029 74.610,111.618 74.610 C 109.539 74.610,109.159 74.154,108.765 71.189 C 108.558 69.625,107.969 69.309,107.511 70.515 M32.774 98.762 C 32.235 102.183,31.769 102.803,29.883 102.609 C 27.520 102.365,27.382 102.908,29.331 104.781 C 31.103 106.484,31.163 106.726,30.355 108.936 C 29.233 112.004,29.603 112.414,31.631 110.355 C 33.345 108.615,33.218 108.612,35.143 110.426 C 37.028 112.201,37.243 111.936,36.336 108.949 C 35.568 106.421,35.504 106.677,37.349 104.889 C 39.421 102.882,39.326 102.342,36.945 102.591 C 34.980 102.796,34.546 102.383,34.225 100.004 C 33.938 97.866,33.036 97.095,32.774 98.762 M107.784 98.036 C 107.582 98.278,107.322 99.182,107.205 100.044 C 106.913 102.193,106.322 102.796,104.681 102.618 C 102.198 102.348,102.108 102.837,104.241 105.005 C 105.781 106.570,105.981 107.211,105.244 108.227 C 105.131 108.383,104.951 109.021,104.845 109.645 C 104.738 110.270,104.585 111.004,104.505 111.277 C 104.218 112.253,105.217 111.770,106.410 110.355 C 107.068 109.574,107.821 108.936,108.084 108.936 C 108.346 108.936,109.140 109.574,109.848 110.355 C 111.825 112.534,112.191 112.260,111.213 109.335 C 110.355 106.772,110.432 106.374,112.076 104.859 C 114.036 103.054,113.910 102.553,111.498 102.553 L 109.673 102.553 109.180 100.993 C 108.909 100.135,108.679 99.089,108.670 98.669 C 108.648 97.725,108.268 97.453,107.784 98.036 M126.431 98.346 C 126.201 98.792,125.921 99.767,125.809 100.514 C 125.528 102.385,125.046 102.800,123.382 102.603 C 120.961 102.317,120.759 102.896,122.654 104.692 C 124.476 106.419,124.563 106.805,123.688 109.294 C 122.661 112.216,123.177 112.610,125.079 110.355 C 126.589 108.564,126.835 108.578,128.666 110.567 C 130.349 112.396,130.956 112.200,130.115 110.098 C 129.030 107.386,129.152 106.390,130.754 104.874 C 132.864 102.878,132.763 102.573,130.032 102.684 C 128.325 102.753,128.334 102.764,127.647 99.950 C 127.021 97.384,126.966 97.311,126.431 98.346 M145.038 97.943 C 144.885 98.138,144.682 98.984,144.587 99.823 C 144.319 102.202,143.796 102.791,142.097 102.628 C 139.649 102.393,139.465 102.917,141.366 104.707 C 143.092 106.332,143.208 106.695,142.575 108.511 C 141.374 111.957,141.738 112.531,143.742 110.355 C 144.461 109.574,145.231 108.936,145.452 108.936 C 145.674 108.936,146.436 109.574,147.146 110.355 C 149.105 112.507,149.336 112.117,148.296 108.411 C 147.760 106.501,147.866 106.119,149.249 104.975 C 151.394 103.201,151.320 102.290,149.056 102.600 C 147.280 102.844,146.800 102.439,146.406 100.366 C 145.848 97.432,145.679 97.131,145.038 97.943 M14.055 98.779 C 13.280 102.786,13.267 102.802,10.790 102.637 C 8.990 102.518,8.983 103.149,10.766 104.837 C 12.383 106.367,12.430 106.605,11.631 109.220 C 10.691 112.300,10.960 112.529,12.962 110.355 C 13.681 109.574,14.441 108.936,14.651 108.936 C 14.862 108.936,15.649 109.574,16.401 110.355 C 18.561 112.596,18.865 112.303,17.728 109.079 C 16.890 106.705,16.949 106.455,18.745 104.775 C 20.684 102.961,20.593 102.493,18.336 102.675 C 16.339 102.835,16.018 102.501,15.494 99.720 C 15.116 97.710,14.358 97.214,14.055 98.779 M51.546 98.052 C 51.437 98.161,51.345 98.708,51.341 99.267 C 51.338 99.826,51.081 100.844,50.770 101.529 L 50.205 102.774 48.720 102.630 C 46.016 102.367,45.911 102.736,48.085 104.859 C 49.851 106.583,49.859 106.618,49.063 108.981 C 48.091 111.865,48.357 112.192,50.240 110.426 C 52.174 108.611,51.994 108.612,53.814 110.409 C 55.604 112.177,55.882 112.037,55.210 109.706 C 54.236 106.330,54.210 106.490,56.023 104.815 C 58.055 102.940,57.986 102.520,55.667 102.650 C 53.655 102.762,53.232 102.296,52.833 99.520 C 52.628 98.099,52.101 97.497,51.546 98.052 M70.465 98.089 C 70.291 98.204,70.008 99.110,69.835 100.102 C 69.401 102.597,69.181 102.801,67.161 102.590 C 64.794 102.343,64.664 102.918,66.672 104.764 C 68.426 106.376,68.513 106.853,67.564 109.645 C 66.770 111.984,67.171 112.201,68.969 110.403 C 70.766 108.606,70.760 108.606,72.482 110.355 C 74.586 112.490,74.655 112.361,73.589 108.270 L 73.083 106.328 74.737 104.801 C 76.763 102.930,76.632 102.361,74.230 102.609 C 72.267 102.811,72.115 102.604,71.347 98.652 C 71.190 97.847,71.007 97.731,70.465 98.089 M88.653 99.220 C 88.281 102.059,87.952 102.547,86.370 102.603 C 85.597 102.631,84.741 102.663,84.468 102.674 C 83.618 102.710,83.917 103.418,85.350 104.757 C 87.159 106.450,87.189 106.580,86.372 109.083 C 85.301 112.364,85.549 112.599,87.713 110.355 C 88.465 109.574,89.252 108.936,89.462 108.936 C 89.673 108.936,90.433 109.574,91.151 110.355 C 93.130 112.503,93.520 112.170,92.482 109.220 C 91.618 106.762,91.704 106.379,93.499 104.709 C 95.463 102.881,95.302 102.308,92.904 102.590 C 91.082 102.804,90.655 102.339,90.175 99.613 C 89.772 97.324,88.929 97.106,88.653 99.220 M160.172 109.669 C 160.077 109.915,160.000 114.628,160.000 120.142 C 160.000 125.655,160.077 130.368,160.172 130.615 C 160.329 131.023,171.167 131.064,280.172 131.064 L 400.000 131.064 400.000 120.142 L 400.000 109.220 280.172 109.220 C 171.167 109.220,160.329 109.260,160.172 109.669 M117.190 125.783 C 116.995 126.019,116.741 126.888,116.626 127.716 C 116.277 130.238,116.023 130.496,113.891 130.496 C 111.567 130.496,111.469 130.984,113.428 132.783 C 115.005 134.231,115.199 134.623,114.826 135.603 C 114.494 136.475,113.759 139.219,113.759 139.588 C 113.759 140.160,114.338 139.805,115.630 138.440 C 117.299 136.677,117.573 136.678,119.244 138.449 C 121.172 140.491,121.434 139.830,120.162 136.137 C 119.654 134.662,119.783 134.337,121.517 132.738 C 123.376 131.024,123.230 130.496,120.895 130.496 C 118.889 130.496,118.742 130.353,118.285 127.943 C 117.832 125.559,117.659 125.218,117.190 125.783 M135.746 125.672 C 135.650 125.826,135.445 126.740,135.291 127.701 C 134.859 130.383,134.751 130.496,132.631 130.496 C 130.205 130.496,130.126 130.815,132.063 132.772 C 133.875 134.604,133.852 134.464,132.913 137.857 C 132.327 139.975,132.798 140.174,134.292 138.440 C 135.940 136.529,136.172 136.527,137.930 138.399 C 139.727 140.314,140.011 139.921,139.028 136.880 C 138.254 134.485,138.208 134.669,140.024 132.897 C 141.993 130.974,141.922 130.663,139.488 130.555 L 137.603 130.471 137.170 129.014 C 136.932 128.212,136.738 127.271,136.738 126.922 C 136.738 125.678,136.178 124.973,135.746 125.672 M23.432 126.293 C 23.358 126.655,23.222 127.509,23.129 128.192 C 22.841 130.310,22.635 130.496,20.574 130.496 C 18.172 130.496,18.108 130.758,20.016 132.758 C 21.794 134.622,21.769 134.483,20.875 137.705 C 20.217 140.073,20.421 140.204,22.127 138.511 C 23.978 136.673,24.270 136.667,25.903 138.440 C 27.315 139.972,27.988 140.268,27.680 139.220 C 27.509 138.640,26.975 136.779,26.494 135.088 C 26.339 134.542,26.586 134.172,27.946 132.917 C 30.026 130.997,29.947 130.496,27.561 130.496 C 25.504 130.496,25.267 130.254,24.852 127.725 C 24.520 125.703,23.718 124.895,23.432 126.293 M42.131 126.738 C 42.041 127.323,41.806 128.376,41.609 129.078 L 41.251 130.355 39.420 130.441 C 36.851 130.561,36.773 130.795,38.664 132.706 C 40.489 134.551,40.501 134.599,39.706 136.906 C 38.692 139.845,39.002 140.290,40.825 138.511 C 42.705 136.676,42.939 136.671,44.565 138.440 C 46.313 140.341,47.249 140.168,46.099 138.156 C 45.876 137.766,45.689 137.103,45.684 136.683 C 45.678 136.264,45.546 135.841,45.390 135.745 C 44.681 135.307,45.160 134.218,46.687 132.797 C 48.647 130.972,48.576 130.662,46.170 130.555 L 44.300 130.472 43.852 129.157 C 43.606 128.434,43.404 127.507,43.404 127.098 C 43.404 126.384,42.958 125.674,42.509 125.674 C 42.392 125.674,42.221 126.152,42.131 126.738 M60.875 126.140 C 60.784 126.377,60.706 126.912,60.703 127.328 C 60.700 127.744,60.453 128.621,60.156 129.277 L 59.615 130.468 57.844 130.553 C 55.531 130.664,55.481 130.989,57.488 132.886 C 59.117 134.428,59.128 134.448,58.785 135.396 C 58.595 135.922,58.440 136.562,58.440 136.819 C 58.440 137.076,58.224 137.738,57.960 138.291 C 57.094 140.107,57.904 140.210,59.528 138.489 C 61.221 136.695,61.609 136.674,63.038 138.298 C 64.272 139.700,65.119 139.991,64.895 138.936 C 64.821 138.585,64.522 137.428,64.231 136.366 L 63.702 134.434 65.336 132.850 C 67.329 130.921,67.281 130.661,64.911 130.555 C 62.856 130.463,62.637 130.255,62.262 128.039 C 61.976 126.347,61.852 126.021,61.431 125.860 C 61.216 125.777,60.965 125.903,60.875 126.140 M79.589 125.934 C 79.501 126.077,79.347 126.811,79.249 127.565 C 78.923 130.053,78.558 130.457,76.547 130.554 C 74.260 130.664,74.202 131.004,76.146 132.873 C 77.903 134.561,77.888 134.519,77.341 136.067 C 76.128 139.507,76.580 140.467,78.394 138.298 C 78.982 137.595,79.707 137.021,80.008 137.021 C 80.309 137.021,81.085 137.596,81.732 138.298 C 82.380 139.000,83.099 139.574,83.332 139.574 C 83.775 139.574,83.759 139.392,83.117 137.163 C 82.355 134.518,82.348 134.550,84.112 132.768 C 86.045 130.814,85.964 130.496,83.533 130.496 L 81.710 130.496 81.280 129.469 C 81.044 128.904,80.851 128.021,80.851 127.506 C 80.851 125.948,80.133 125.054,79.589 125.934 M98.464 126.070 C 98.284 126.287,98.017 127.194,97.872 128.085 C 97.515 130.279,97.281 130.496,95.276 130.496 C 92.913 130.496,92.789 131.025,94.741 132.782 C 96.463 134.332,96.507 134.563,95.637 137.477 C 94.743 140.472,94.968 140.636,96.961 138.440 C 97.668 137.660,98.455 137.021,98.709 137.021 C 98.963 137.021,99.799 137.660,100.567 138.440 C 102.400 140.300,103.164 139.882,102.019 137.645 C 100.931 135.518,101.086 134.577,102.827 132.752 C 104.729 130.758,104.664 130.496,102.263 130.496 C 100.138 130.496,100.060 130.413,99.517 127.551 C 99.147 125.598,99.013 125.409,98.464 126.070 M0.496 153.103 C 0.035 153.224,0.000 153.984,0.000 163.992 L 0.000 174.752 200.000 174.752 L 400.000 174.752 400.000 163.830 L 400.000 152.908 200.496 152.941 C 90.770 152.959,0.770 153.032,0.496 153.103 M0.000 207.518 L 0.000 218.440 200.000 218.440 L 400.000 218.440 400.000 207.518 L 400.000 196.596 200.000 196.596 L 0.000 196.596 0.000 207.518 M0.000 251.064 L 0.000 261.844 200.000 261.844 L 400.000 261.844 400.000 251.064 L 400.000 240.284 200.000 240.284 L 0.000 240.284 0.000 251.064 " stroke="none" fill="#faf8f9" fill-rule="evenodd"></path><path id="path2" d="M160.000 11.222 C 160.000 17.944,160.104 22.380,160.260 22.284 C 160.403 22.196,214.403 22.125,280.260 22.127 L 400.000 22.130 400.000 11.065 L 400.000 0.000 280.000 0.000 L 160.000 0.000 160.000 11.222 M160.022 54.894 C 160.035 61.135,160.109 66.082,160.188 65.887 C 160.302 65.604,184.563 65.532,280.165 65.532 L 400.000 65.532 400.000 54.611 L 400.000 43.689 280.000 43.618 L 160.000 43.546 160.022 54.894 M160.022 98.582 C 160.035 104.823,160.109 109.770,160.188 109.574 C 160.302 109.292,184.563 109.220,280.165 109.220 L 400.000 109.220 400.000 98.299 L 400.000 87.377 280.000 87.306 L 160.000 87.234 160.022 98.582 M159.955 141.631 L 159.858 152.908 279.929 152.908 L 400.000 152.908 400.000 141.986 L 400.000 131.064 280.165 131.064 C 184.561 131.064,160.303 130.992,160.191 130.709 C 160.115 130.514,160.008 135.429,159.955 141.631 M0.000 185.674 L 0.000 196.596 200.000 196.596 L 400.000 196.596 400.000 185.674 L 400.000 174.752 200.000 174.752 L 0.000 174.752 0.000 185.674 M0.000 229.362 L 0.000 240.284 200.000 240.284 L 400.000 240.284 400.000 229.362 L 400.000 218.440 200.000 218.440 L 0.000 218.440 0.000 229.362 M0.000 272.766 L 0.000 283.688 200.000 283.688 L 400.000 283.688 400.000 272.766 L 400.000 261.844 200.000 261.844 L 0.000 261.844 0.000 272.766 " stroke="none" fill="#bb0b30" fill-rule="evenodd"></path></g></svg>