<svg id="svg" version="1.1" xmlns="http://www.w3.org/2000/svg" xmlns:xlink="http://www.w3.org/1999/xlink" width="400" height="400" viewBox="0, 0, 400,400"><g id="svgg"><path id="path0" d="M234.863 138.700 C 232.114 141.505,224.046 149.691,216.933 156.890 C 209.494 164.420,204.000 170.290,204.000 170.708 C 204.000 171.116,204.916 172.131,206.084 173.018 C 207.230 173.888,208.902 175.230,209.800 176.000 C 210.698 176.770,212.218 178.030,213.177 178.800 C 214.136 179.570,216.199 181.287,217.761 182.616 C 219.322 183.945,223.030 186.998,226.000 189.401 C 228.970 191.804,231.490 193.868,231.600 193.986 C 231.816 194.219,236.321 197.966,242.400 202.970 C 246.654 206.471,249.897 209.192,250.559 209.814 C 250.802 210.042,252.350 211.302,254.000 212.614 C 255.650 213.926,257.180 215.198,257.400 215.441 C 257.620 215.684,259.143 216.936,260.784 218.225 C 262.426 219.514,264.060 220.846,264.416 221.184 C 265.175 221.906,265.909 222.517,270.200 225.998 C 271.960 227.426,273.850 228.979,274.400 229.449 C 274.950 229.920,277.650 232.162,280.400 234.433 C 283.150 236.704,286.840 239.754,288.600 241.210 C 304.973 254.755,309.168 258.233,310.230 259.145 C 310.907 259.725,313.372 261.730,315.709 263.600 C 321.345 268.111,321.804 266.863,311.400 275.325 C 309.640 276.756,306.310 279.486,304.000 281.392 C 301.690 283.298,298.090 286.239,296.000 287.928 C 293.910 289.618,292.020 291.198,291.800 291.441 C 291.580 291.684,290.068 292.944,288.440 294.241 C 286.812 295.538,284.271 297.590,282.793 298.800 C 281.316 300.010,279.228 301.720,278.154 302.600 C 277.079 303.480,274.580 305.551,272.600 307.201 C 270.620 308.852,267.650 311.282,266.000 312.600 C 264.350 313.919,262.910 315.110,262.800 315.247 C 262.690 315.384,261.160 316.630,259.400 318.018 C 257.640 319.405,256.110 320.647,256.000 320.777 C 255.890 320.907,252.290 323.881,248.000 327.386 C 243.710 330.890,240.110 333.866,240.000 333.999 C 239.890 334.133,238.450 335.311,236.800 336.619 C 235.150 337.927,233.710 339.094,233.600 339.213 C 233.490 339.332,230.520 341.754,227.000 344.596 C 223.480 347.437,220.510 349.861,220.400 349.982 C 220.290 350.103,218.580 351.541,216.600 353.179 C 214.620 354.816,212.010 356.984,210.800 357.997 C 209.590 359.009,207.565 360.636,206.300 361.613 C 205.035 362.590,204.000 363.669,204.000 364.010 C 204.000 364.611,210.567 371.447,229.100 390.140 C 233.995 395.077,238.000 399.316,238.000 399.558 C 238.000 400.541,242.282 400.071,243.479 398.958 C 244.096 398.384,247.750 395.283,251.600 392.066 C 255.450 388.849,258.690 386.116,258.800 385.992 C 258.910 385.867,260.080 384.897,261.400 383.835 C 262.720 382.773,264.790 381.045,266.000 379.995 C 267.210 378.945,269.910 376.675,272.000 374.952 C 274.090 373.228,275.890 371.706,276.000 371.568 C 276.110 371.431,277.251 370.467,278.536 369.426 C 281.470 367.048,282.541 366.156,284.576 364.395 C 286.339 362.870,289.409 360.283,293.800 356.619 C 295.340 355.334,297.500 353.521,298.600 352.590 C 304.110 347.926,311.649 341.603,313.604 340.005 C 314.812 339.019,315.890 338.118,316.000 338.005 C 316.110 337.891,317.820 336.459,319.800 334.822 C 321.780 333.185,323.580 331.655,323.800 331.423 C 324.020 331.190,325.051 330.317,326.090 329.481 C 327.130 328.646,328.210 327.745,328.490 327.480 C 328.771 327.214,329.987 326.187,331.194 325.198 C 334.541 322.455,335.245 321.867,336.226 321.000 C 336.724 320.560,337.902 319.570,338.844 318.800 C 339.786 318.030,342.907 315.420,345.779 313.000 C 348.651 310.580,351.985 307.790,353.189 306.800 C 354.393 305.810,355.661 304.730,356.007 304.400 C 356.353 304.070,357.528 303.061,358.618 302.158 C 362.968 298.554,366.250 295.798,367.200 294.952 C 367.750 294.463,369.910 292.650,372.000 290.925 C 374.090 289.200,376.250 287.405,376.800 286.936 C 377.350 286.467,379.169 284.939,380.842 283.541 C 387.823 277.709,393.413 273.004,393.600 272.804 C 393.710 272.686,394.790 271.784,396.000 270.800 C 397.210 269.816,398.344 268.784,398.520 268.506 C 398.696 268.228,399.101 268.000,399.420 268.000 C 401.002 268.000,400.175 267.151,391.800 260.181 C 388.940 257.800,385.610 255.021,384.400 254.004 C 382.390 252.314,380.032 250.345,374.630 245.842 C 373.547 244.939,372.377 243.922,372.030 243.582 C 371.684 243.242,370.410 242.162,369.200 241.183 C 367.990 240.205,366.795 239.223,366.545 239.002 C 365.699 238.254,360.450 233.845,354.100 228.548 C 352.615 227.309,350.950 225.914,350.399 225.448 C 345.698 221.466,339.450 216.245,337.417 214.600 C 336.058 213.500,333.878 211.678,332.573 210.550 C 331.268 209.423,329.030 207.526,327.600 206.335 C 326.170 205.144,323.740 203.115,322.200 201.827 C 320.660 200.538,318.508 198.745,317.418 197.842 C 316.328 196.939,315.151 195.930,314.802 195.600 C 314.453 195.270,313.275 194.295,312.184 193.434 C 311.093 192.573,310.020 191.673,309.800 191.434 C 309.580 191.195,308.549 190.317,307.510 189.481 C 306.470 188.646,305.390 187.746,305.109 187.481 C 304.829 187.217,303.699 186.286,302.599 185.414 C 301.500 184.542,300.150 183.438,299.600 182.963 C 299.050 182.487,297.790 181.395,296.800 180.537 C 295.810 179.678,294.113 178.268,293.028 177.403 C 291.944 176.537,290.594 175.396,290.028 174.867 C 289.463 174.338,287.650 172.807,286.000 171.467 C 284.350 170.126,282.910 168.929,282.800 168.808 C 282.690 168.687,279.900 166.328,276.600 163.566 C 273.300 160.804,267.292 155.767,263.249 152.372 C 259.207 148.978,254.743 145.268,253.331 144.128 C 251.919 142.988,249.737 141.164,248.482 140.074 C 243.478 135.729,240.801 133.600,240.343 133.600 C 240.078 133.600,237.612 135.895,234.863 138.700 " stroke="none" fill="#fbfbfb" fill-rule="evenodd"></path><path id="path1" d="M0.000 200.000 L 0.000 400.000 119.000 400.000 C 205.538 400.000,238.000 399.880,238.000 399.558 C 238.000 399.316,233.995 395.077,229.100 390.140 C 210.567 371.447,204.000 364.611,204.000 364.010 C 204.000 363.669,205.035 362.590,206.300 361.613 C 207.565 360.636,209.590 359.009,210.800 357.997 C 212.010 356.984,214.620 354.816,216.600 353.179 C 218.580 351.541,220.290 350.103,220.400 349.982 C 220.510 349.861,223.480 347.437,227.000 344.596 C 230.520 341.754,233.490 339.332,233.600 339.213 C 233.710 339.094,235.150 337.927,236.800 336.619 C 238.450 335.311,239.890 334.133,240.000 333.999 C 240.110 333.866,243.710 330.890,248.000 327.386 C 252.290 323.881,255.890 320.907,256.000 320.777 C 256.110 320.647,257.640 319.405,259.400 318.018 C 261.160 316.630,262.690 315.384,262.800 315.247 C 262.910 315.110,264.350 313.919,266.000 312.600 C 267.650 311.282,270.620 308.852,272.600 307.201 C 274.580 305.551,277.079 303.480,278.154 302.600 C 279.228 301.720,281.316 300.010,282.793 298.800 C 284.271 297.590,286.812 295.538,288.440 294.241 C 290.068 292.944,291.580 291.684,291.800 291.441 C 292.020 291.198,293.910 289.618,296.000 287.928 C 298.090 286.239,301.690 283.298,304.000 281.392 C 306.310 279.486,309.640 276.756,311.400 275.325 C 321.804 266.863,321.345 268.111,315.709 263.600 C 313.372 261.730,310.907 259.725,310.230 259.145 C 309.168 258.233,304.973 254.755,288.600 241.210 C 286.840 239.754,283.150 236.704,280.400 234.433 C 277.650 232.162,274.950 229.920,274.400 229.449 C 273.850 228.979,271.960 227.426,270.200 225.998 C 265.909 222.517,265.175 221.906,264.416 221.184 C 264.060 220.846,262.426 219.514,260.784 218.225 C 259.143 216.936,257.620 215.684,257.400 215.441 C 257.180 215.198,255.650 213.926,254.000 212.614 C 252.350 211.302,250.802 210.042,250.559 209.814 C 249.897 209.192,246.654 206.471,242.400 202.970 C 236.321 197.966,231.816 194.219,231.600 193.986 C 231.490 193.868,228.970 191.804,226.000 189.401 C 223.030 186.998,219.322 183.945,217.761 182.616 C 216.199 181.287,214.136 179.570,213.177 178.800 C 212.218 178.030,210.698 176.770,209.800 176.000 C 208.902 175.230,207.230 173.888,206.084 173.018 C 204.916 172.131,204.000 171.116,204.000 170.708 C 204.000 170.290,209.494 164.420,216.933 156.890 C 224.046 149.691,232.114 141.505,234.863 138.700 C 237.612 135.895,240.078 133.600,240.343 133.600 C 240.801 133.600,243.478 135.729,248.482 140.074 C 249.737 141.164,251.919 142.988,253.331 144.128 C 254.743 145.268,259.207 148.978,263.249 152.372 C 267.292 155.767,273.300 160.804,276.600 163.566 C 279.900 166.328,282.690 168.687,282.800 168.808 C 282.910 168.929,284.350 170.126,286.000 171.467 C 287.650 172.807,289.463 174.338,290.028 174.867 C 290.594 175.396,291.944 176.537,293.028 177.403 C 294.113 178.268,295.810 179.678,296.800 180.537 C 297.790 181.395,299.050 182.487,299.600 182.963 C 300.150 183.438,301.500 184.542,302.599 185.414 C 303.699 186.286,304.829 187.217,305.109 187.481 C 305.390 187.746,306.470 188.646,307.510 189.481 C 308.549 190.317,309.580 191.195,309.800 191.434 C 310.020 191.673,311.093 192.573,312.184 193.434 C 313.275 194.295,314.453 195.270,314.802 195.600 C 315.151 195.930,316.328 196.939,317.418 197.842 C 318.508 198.745,320.570 200.462,322.000 201.657 C 323.430 202.852,325.860 204.881,327.400 206.165 C 328.940 207.450,331.268 209.423,332.573 210.550 C 333.878 211.678,336.058 213.500,337.417 214.600 C 339.450 216.245,345.698 221.466,350.399 225.448 C 350.950 225.914,352.615 227.309,354.100 228.548 C 360.450 233.845,365.699 238.254,366.545 239.002 C 366.795 239.223,367.990 240.205,369.200 241.183 C 370.410 242.162,371.684 243.242,372.030 243.582 C 372.377 243.922,373.547 244.939,374.630 245.842 C 380.165 250.456,382.395 252.319,384.400 254.006 C 385.610 255.024,389.237 258.054,392.460 260.740 C 395.684 263.425,398.541 265.887,398.809 266.211 C 399.078 266.535,399.456 266.800,399.649 266.800 C 399.850 266.800,400.000 209.658,400.000 133.400 L 400.000 0.000 200.000 0.000 L 0.000 0.000 0.000 200.000 M398.520 268.506 C 398.344 268.784,397.210 269.816,396.000 270.800 C 394.790 271.784,393.710 272.686,393.600 272.804 C 393.413 273.004,387.823 277.709,380.842 283.541 C 379.169 284.939,377.350 286.467,376.800 286.936 C 376.250 287.405,374.090 289.200,372.000 290.925 C 369.910 292.650,367.750 294.463,367.200 294.952 C 366.250 295.798,362.968 298.554,358.618 302.158 C 357.528 303.061,356.353 304.070,356.007 304.400 C 355.661 304.730,354.393 305.810,353.189 306.800 C 351.985 307.790,348.651 310.580,345.779 313.000 C 342.907 315.420,339.786 318.030,338.844 318.800 C 337.902 319.570,336.724 320.560,336.226 321.000 C 335.245 321.867,334.541 322.455,331.194 325.198 C 329.987 326.187,328.771 327.214,328.490 327.480 C 328.210 327.745,327.130 328.646,326.090 329.481 C 325.051 330.317,324.020 331.190,323.800 331.423 C 323.580 331.655,321.780 333.185,319.800 334.822 C 317.820 336.459,316.110 337.891,316.000 338.005 C 315.890 338.118,314.812 339.019,313.604 340.005 C 311.649 341.603,304.110 347.926,298.600 352.590 C 297.500 353.521,295.340 355.334,293.800 356.619 C 289.409 360.283,286.339 362.870,284.576 364.395 C 282.541 366.156,281.470 367.048,278.536 369.426 C 277.251 370.467,276.110 371.431,276.000 371.568 C 275.890 371.706,274.090 373.228,272.000 374.952 C 269.910 376.675,267.210 378.945,266.000 379.995 C 264.790 381.045,262.720 382.773,261.400 383.835 C 260.080 384.897,258.910 385.867,258.800 385.992 C 258.456 386.380,244.379 398.171,243.569 398.749 C 243.146 399.051,242.800 399.456,242.800 399.649 C 242.800 399.849,276.546 400.000,321.400 400.000 L 400.000 400.000 400.000 334.000 C 400.000 265.297,400.019 266.136,398.520 268.506 " stroke="none" fill="#4ca4ec" fill-rule="evenodd"></path></g></svg>